<svg xmlns="http://www.w3.org/2000/svg" viewBox="0 0 48 48" fill="none">
  <circle cx="24" cy="24" r="22" fill="#e8f5f2"/>
  <!-- Folder -->
  <path d="M8 16h12l3-4h17a2 2 0 012 2v20a2 2 0 01-2 2H8a2 2 0 01-2-2V18a2 2 0 012-2z" stroke="#4cada8" stroke-width="2" fill="white"/>
  <!-- Document inside -->
  <rect x="14" y="20" width="20" height="14" rx="2" fill="#4cada8" opacity="0.1" stroke="#4cada8" stroke-width="1"/>
  <!-- Config lines -->
  <rect x="17" y="23" width="14" height="1.2" rx="0.5" fill="#4cada8" opacity="0.5"/>
  <rect x="17" y="26" width="10" height="1.2" rx="0.5" fill="#4cada8" opacity="0.4"/>
  <rect x="17" y="29" width="12" height="1.2" rx="0.5" fill="#4cada8" opacity="0.3"/>
  <!-- Save checkmark -->
  <circle cx="30" cy="18" r="4" fill="#52c41a" opacity="0.15"/>
  <path d="M28 18l1.5 1.5L33 15" stroke="#52c41a" stroke-width="1.5" stroke-linecap="round" stroke-linejoin="round"/>
</svg>