<svg xmlns="http://www.w3.org/2000/svg" viewBox="0 0 48 48" fill="none">
  <circle cx="24" cy="24" r="22" fill="#e8f5f2"/>
  <!-- Wizard hat -->
  <path d="M24 6l-8 24h16L24 6z" stroke="#4cada8" stroke-width="2" fill="#4cada8" opacity="0.15"/>
  <!-- Hat brim -->
  <ellipse cx="24" cy="30" rx="14" ry="3" stroke="#4cada8" stroke-width="2" fill="white"/>
  <!-- Stars -->
  <path d="M14 10l1 3 3-1-2 2 2 2-3-1-1 3-1-3-3 1 2-2-2-2 3 1z" fill="#4cada8" opacity="0.5"/>
  <path d="M34 12l.8 2.4 2.4-.8-1.6 1.6 1.6 1.6-2.4-.8-.8 2.4-.8-2.4-2.4.8 1.6-1.6-1.6-1.6 2.4.8z" fill="#4cada8" opacity="0.4"/>
  <!-- Sparkle trail -->
  <path d="M16 14l2 1M32 16l2-1" stroke="#4cada8" stroke-width="1" stroke-linecap="round" opacity="0.3"/>
  <!-- Arrow pointing forward -->
  <path d="M20 36l4 4 4-4" stroke="#4cada8" stroke-width="2" stroke-linecap="round" stroke-linejoin="round" fill="none"/>
</svg>