<svg xmlns="http://www.w3.org/2000/svg" viewBox="0 0 48 48" fill="none">
  <circle cx="24" cy="24" r="22" fill="#e8f5f2"/>
  <!-- Shield shape -->
  <path d="M24 6l-10 4v8c0 6.2 4 12 10 16 6-4 10-9.8 10-16v-8l-10-4z" stroke="#4cada8" stroke-width="2" fill="white"/>
  <!-- Shield fill -->
  <path d="M24 6l-10 4v8c0 6.2 4 12 10 16 6-4 10-9.8 10-16v-8l-10-4z" fill="#4cada8" opacity="0.08"/>
  <!-- User icon -->
  <circle cx="24" cy="18" r="3" stroke="#4cada8" stroke-width="1.5" fill="none"/>
  <!-- User body -->
  <path d="M18 28c0-3 2.7-5 6-5s6 2 6 5" stroke="#4cada8" stroke-width="1.5" stroke-linecap="round" fill="none"/>
  <!-- Permission checkmark -->
  <path d="M28 14l2 2 4-4" stroke="#4cada8" stroke-width="1.5" stroke-linecap="round" stroke-linejoin="round" opacity="0.6"/>
</svg>
